# xmcd
#
# Track frame offsets:
#	150
#	10986
#	27791
#	44071
#	57628
#	68440
#	81750
#	101075
#	113470
#	128167
#	147357
#	159550
#	174255
#	190400
#	206102
#	222608
#
# Disc length: 3161 seconds
#
# Revision: 0
# Processed by: cddbd v1.5.2PL0 Copyright (c) Steve Scherf et al.
# Submitted via: EasyCDDAExtractor 10.2.0.1
#
DISCID=e80c5710
DTITLE=Ronnie Milsap - 16 Biggest Hits (Remastered)
DYEAR=2007
DGENRE=Country
TTITLE0=pure love
TTITLE1=smoky mountain rain
TTITLE2=it was almost like a song
TTITLE3=(im a) stand by my woman man
TTITLE4=daydreams about night things
TTITLE5=(id be) a legend in my time
TTITLE6=lost in the fifties tonight (in the still of the night)
TTITLE7=please dont tell me how the story ends
TTITLE8=(theres) no gettin over me
TTITLE9=stranger in my house
TTITLE10=my heart
TTITLE11=a woman in love
TTITLE12=i wouldnt have missed it for the world
TTITLE13=only one love in my life
TTITLE14=any day now
TTITLE15=let my love be your pillow
EXTD=
EXTT0=
EXTT1=
EXTT2=
EXTT3=
EXTT4=
EXTT5=
EXTT6=
EXTT7=
EXTT8=
EXTT9=
EXTT10=
EXTT11=
EXTT12=
EXTT13=
EXTT14=
EXTT15=
PLAYORDER=
